{"accessors":[{"bufferView":0,"componentType":5123,"count":3462,"max":[2307],"min":[0],"type":"SCALAR"},{"bufferView":1,"componentType":5126,"count":2308,"max":[0.9458906650543213,0.7400000095367432,3.700000047683716],"min":[0.0,-0.7400000095367432,-3.716764450073242],"type":"VEC3"},{"bufferView":2,"componentType":5126,"count":2308,"max":[0.9657870531082153,1.0,0.9639956951141357],"min":[-0.9657871127128601,-0.9639959931373596,-0.9639956951141357],"type":"VEC3"},{"bufferView":3,"componentType":5126,"count":2308,"max":[1.0,1.0],"min":[0.0,0.0],"type":"VEC2"},{"bufferView":4,"componentType":5126,"count":2308,"max":[1.0,1.0,1.0,1.0],"min":[1.0,1.0,1.0,1.0],"type":"VEC4"},{"bufferView":5,"componentType":5126,"count":2308,"max":[1.694112777709961,0.0,0.0],"min":[0.0,0.0,0.0],"type":"VEC3"},{"bufferView":6,"componentType":5126,"count":2308,"max":[2.205371856689453e-06,5.4836273193359375e-06,5.189329385757446e-06],"min":[-2.205371856689453e-06,-5.036592483520508e-06,-5.183741450309753e-06],"type":"VEC3"},{"bufferView":7,"componentType":5126,"count":2308,"max":[2.0323896408081055,0.0,0.0],"min":[0.0,0.0,0.0],"type":"VEC3"},{"bufferView":8,"componentType":5126,"count":2308,"max":[2.205371856689453e-06,4.6193599700927734e-06,4.470348358154297e-06],"min":[-2.2351741790771484e-06,-4.738569259643555e-06,-3.0994415283203125e-06],"type":"VEC3"},{"bufferView":9,"componentType":5126,"count":2308,"max":[0.0,0.0,3.0306496620178223],"min":[0.0,0.0,0.0],"type":"VEC3"},{"bufferView":10,"componentType":5126,"count":2308,"max":[2.205371856689453e-06,4.6193599700927734e-06,4.470348358154297e-06],"min":[-2.2351741790771484e-06,-4.738569259643555e-06,-3.0994415283203125e-06],"type":"VEC3"},{"bufferView":11,"componentType":5123,"count":3456,"max":[2303],"min":[0],"type":"SCALAR"},{"bufferView":12,"componentType":5126,"count":2304,"max":[0.9458906650543213,0.7400000095367432,-2.976764440536499],"min":[0.5458905696868896,-0.7400000095367432,-4.456764221191406],"type":"VEC3"},{"bufferView":13,"componentType":5126,"count":2304,"max":[0.9657871723175049,0.9639959335327148,0.9639959335327148],"min":[-0.9657871127128601,-0.9639959931373596,-0.9639966487884521],"type":"VEC3"},{"bufferView":14,"componentType":5126,"count":2304,"max":[1.0,0.9999999999999998],"min":[8.881784197001252e-16,0.0],"type":"VEC2"},{"bufferView":15,"componentType":5126,"count":2304,"max":[1.0,1.0,1.0,1.0],"min":[1.0,1.0,1.0,1.0],"type":"VEC4"},{"bufferView":16,"componentType":5126,"count":2304,"max":[0.0,0.0,0.0],"min":[0.0,0.0,0.0],"type":"VEC3"},{"bufferView":17,"componentType":5126,"count":2304,"max":[2.86102294921875e-06,9.939074516296387e-06,4.470348358154297e-06],"min":[-2.8014183044433594e-06,-9.879469871520996e-06,-4.827976226806641e-06],"type":"VEC3"},{"bufferView":18,"componentType":5126,"count":2304,"max":[2.0323896408081055,0.0,0.0],"min":[2.0323896408081055,0.0,0.0],"type":"VEC3"},{"bufferView":19,"componentType":5126,"count":2304,"max":[2.9206275939941406e-06,9.998679161071777e-06,4.425644874572754e-06],"min":[-3.5762786865234375e-06,-9.998679161071777e-06,-5.066394805908203e-06],"type":"VEC3"},{"bufferView":20,"componentType":5126,"count":2304,"max":[0.0,0.0,3.0306496620178223],"min":[0.0,0.0,3.0306496620178223],"type":"VEC3"},{"bufferView":21,"componentType":5126,"count":2304,"max":[5.662441253662109e-07,1.296401023864746e-06,1.4454126358032227e-06],"min":[-6.854534149169922e-07,-1.3262033462524414e-06,-1.5497207641601562e-06],"type":"VEC3"}],"asset":{"generator":"Soft8Soft Verge3D for Blender add-on","version":"2.0"},"bufferViews":[{"buffer":0,"byteLength":6924,"byteOffset":0,"target":34963},{"buffer":0,"byteLength":27696,"byteOffset":6924,"target":34962},{"buffer":0,"byteLength":27696,"byteOffset":34620,"target":34962},{"buffer":0,"byteLength":18464,"byteOffset":62316,"target":34962},{"buffer":0,"byteLength":36928,"byteOffset":80780,"target":34962},{"buffer":0,"byteLength":27696,"byteOffset":117708},{"buffer":0,"byteLength":27696,"byteOffset":145404},{"buffer":0,"byteLength":27696,"byteOffset":173100},{"buffer":0,"byteLength":27696,"byteOffset":200796},{"buffer":0,"byteLength":27696,"byteOffset":228492},{"buffer":0,"byteLength":27696,"byteOffset":256188},{"buffer":0,"byteLength":6912,"byteOffset":283884,"target":34963},{"buffer":0,"byteLength":27648,"byteOffset":290796,"target":34962},{"buffer":0,"byteLength":27648,"byteOffset":318444,"target":34962},{"buffer":0,"byteLength":18432,"byteOffset":346092,"target":34962},{"buffer":0,"byteLength":36864,"byteOffset":364524,"target":34962},{"buffer":0,"byteLength":27648,"byteOffset":401388},{"buffer":0,"byteLength":27648,"byteOffset":429036},{"buffer":0,"byteLength":27648,"byteOffset":456684},{"buffer":0,"byteLength":27648,"byteOffset":484332},{"buffer":0,"byteLength":27648,"byteOffset":511980},{"buffer":0,"byteLength":27648,"byteOffset":539628}],"buffers":[{"byteLength":567276,"uri":"wheels_demo.bin"}],"cameras":[{"extensions":{"S8S_v3d_camera_data":{"controls":"ORBIT","enablePan":true,"moveSpeed":1.0,"orbitMaxDistance":100.0,"orbitMaxPolarAngle":3.1415927410125732,"orbitMinDistance":0.0,"orbitMinPolarAngle":0.0,"orbitTarget":[0.0,0.0,-0.0],"rotateSpeed":1.0,"viewportFitInitialAspect":1.7777777777777777,"viewportFitType":"AUTO"}},"name":"Camera","perspective":{"aspectRatio":1.7777777777777777,"yfov":0.39959652046304894,"zfar":100.0,"znear":0.10000000149011612},"type":"perspective"}],"extensions":{"S8S_v3d_data":{"lights":[{"color":[1.0,1.0,1.0],"constantAttenuation":1.0,"decay":2,"distance":31.622776955095866,"intensity":1000.0,"linearAttenuation":0.0,"name":"Light","profile":"blender","quadraticAttenuation":0.03162277624827173,"shadow":{"bias":-0.0018,"cameraFar":31.622776955095866,"cameraFov":0,"cameraNear":0.05000000074505806,"enabled":true,"expBias":2.5,"mapSize":512,"radius":1.0,"slopeScaledBias":2.5},"type":"point"}]}},"extensionsUsed":["S8S_v3d_material_data","S8S_v3d_camera_data","S8S_v3d_data","S8S_v3d_mesh_data","S8S_v3d_node_data","S8S_v3d_scene_data"],"materials":[{"extensions":{"S8S_v3d_material_data":{"nodeGraph":{"edges":[{"fromNode":0,"fromOutput":0,"toInput":0,"toNode":1}],"nodes":[{"inputs":[[0.1522749364376068,0.2948015630245209,0.8000000715255737,1.0],0.0,[1.0,0.20000000298023224,0.10000000149011612],[0.800000011920929,0.800000011920929,0.800000011920929,1.0],0.0,0.5,0.0,0.5,0.0,0.0,0.0,0.5,0.0,0.029999999329447746,1.4500000476837158,0.0,0.0,[0.0,0.0,0.0,1.0],1.0,[0.0,0.0,0.0],[0.0,0.0,0.0],[0.0,0.0,0.0]],"is_active_output":false,"name":"Principled BSDF","outputs":[[0,0,0,0]],"type":"BSDF_PRINCIPLED_BL"},{"inputs":[[0,0,0,0],[0,0,0,0],[0.0,0.0,0.0]],"is_active_output":true,"name":"Material Output","outputs":[],"type":"OUTPUT_MATERIAL_BL"}]},"useCastShadows":true}},"name":"Material.001"},{"extensions":{"S8S_v3d_material_data":{"nodeGraph":{"edges":[{"fromNode":0,"fromOutput":0,"toInput":0,"toNode":1}],"nodes":[{"inputs":[[0.1522749364376068,0.2948015630245209,0.8000000715255737,1.0],0.0,[1.0,0.20000000298023224,0.10000000149011612],[0.800000011920929,0.800000011920929,0.800000011920929,1.0],0.0,0.5,0.0,0.5,0.0,0.0,0.0,0.5,0.0,0.029999999329447746,1.4500000476837158,0.0,0.0,[0.0,0.0,0.0,1.0],1.0,[0.0,0.0,0.0],[0.0,0.0,0.0],[0.0,0.0,0.0]],"is_active_output":false,"name":"Principled BSDF","outputs":[[0,0,0,0]],"type":"BSDF_PRINCIPLED_BL"},{"inputs":[[0,0,0,0],[0,0,0,0],[0.0,0.0,0.0]],"is_active_output":true,"name":"Material Output","outputs":[],"type":"OUTPUT_MATERIAL_BL"}]},"useCastShadows":true}},"name":"Material.004"},{"extensions":{"S8S_v3d_material_data":{"nodeGraph":{"edges":[{"fromNode":1,"fromOutput":0,"toInput":0,"toNode":0}],"nodes":[{"inputs":[[0,0,0,0],[0,0,0,0]],"is_active_output":true,"name":"World Output","outputs":[],"type":"OUTPUT_WORLD_BL"},{"inputs":[[0.05087608844041824,0.05087608844041824,0.05087608844041824,1.0],1.0],"is_active_output":false,"name":"Background","outputs":[[0,0,0,0]],"type":"BACKGROUND_BL"}]},"useCastShadows":true}},"name":"Verge3D_Environment_World"}],"meshes":[{"extensions":{"S8S_v3d_mesh_data":{"colorLayers":{"Col":"COLOR_0"},"uvLayers":{"UVMap":"TEXCOORD_0"}}},"extras":{"targetNames":["FrontWheelsXAxis","BackWheelXAxis","BackWheelYAxis"]},"name":"Plane.003","primitives":[{"attributes":{"COLOR_0":4,"NORMAL":2,"POSITION":1,"TEXCOORD_0":3},"indices":0,"material":0,"mode":4,"targets":[{"NORMAL":6,"POSITION":5},{"NORMAL":8,"POSITION":7},{"NORMAL":10,"POSITION":9}]},{"attributes":{"COLOR_0":15,"NORMAL":13,"POSITION":12,"TEXCOORD_0":14},"indices":11,"material":1,"mode":4,"targets":[{"NORMAL":17,"POSITION":16},{"NORMAL":19,"POSITION":18},{"NORMAL":21,"POSITION":20}]}],"weights":[0.0,0.0,0.0]}],"nodes":[{"extensions":{"S8S_v3d_node_data":{"frustumCulling":true,"groupNames":["FrontWheels"],"hidden":false,"renderOrder":0,"useShadows":true}},"mesh":0,"name":"Plane"},{"extensions":{"S8S_v3d_node_data":{"frustumCulling":true,"groupNames":["FrontWheels"],"hidden":false,"light":0,"renderOrder":0}},"name":"Light","rotation":[-0.2841663062572479,0.7269423604011536,0.34203389286994934,0.5232754945755005],"scale":[1.0,0.9999998807907104,0.9999998807907104],"translation":[4.076245307922363,5.903861999511719,-1.0054539442062378]},{"camera":0,"extensions":{"S8S_v3d_node_data":{"frustumCulling":true,"groupNames":["FrontWheels"],"hidden":false,"renderOrder":0}},"name":"Camera","rotation":[-0.2099730223417282,0.3857799768447876,0.09062845259904861,0.8937963247299194],"scale":[1.0,0.9999998807907104,0.9999998807907104],"translation":[7.358891487121582,4.958309173583984,6.925790786743164]}],"scene":0,"scenes":[{"extensions":{"S8S_v3d_scene_data":{"aaMethod":"AUTO","iblEnvironmentMode":"PMREM","physicallyCorrectLights":true,"pmremMaxTileSize":512,"shadowMap":{"esmDistanceScale":1.0,"renderReverseSided":false,"renderSingleSided":true,"type":"PCFPOISSON"},"toneMapping":{"type":"filmicBlender"},"worldMaterial":2}},"extras":{"animFrameRate":24,"coordSystem":"Z_UP_RIGHT"},"name":"Scene","nodes":[0,2,1]}]}
