{"accessors":[{"bufferView":0,"componentType":5123,"count":996,"max":[279],"min":[0],"type":"SCALAR"},{"bufferView":1,"componentType":5126,"count":280,"max":[8.447613716125488,10.293678283691406,1.5153570175170898],"min":[5.4476141929626465,7.293677806854248,-1.4846429824829102],"type":"VEC3"},{"bufferView":2,"componentType":5126,"count":280,"max":[0.9967195391654968,0.9967193603515625,0.9950186014175415],"min":[-0.996720016002655,-0.996719479560852,-0.9967195987701416],"type":"VEC3"},{"bufferView":3,"componentType":5126,"count":280,"max":[0.8999999761581421,1.0],"min":[-0.022474000230431557,0.0],"type":"VEC2"},{"bufferView":4,"componentType":5123,"count":11520,"max":[1919],"min":[0],"type":"SCALAR"},{"bufferView":5,"componentType":5126,"count":1920,"max":[5.404376983642578,20.386585235595703,3.207082986831665],"min":[-7.832459926605225,2.632719039916992,-3.059372901916504],"type":"VEC3"},{"bufferView":6,"componentType":5126,"count":1920,"max":[0.9983512759208679,0.999955415725708,0.999955415725708],"min":[-0.9983513355255127,-0.9999554753303528,-0.999955415725708],"type":"VEC3"},{"bufferView":7,"componentType":5126,"count":1920,"max":[0.7713890075683594,0.000514984130859375],"min":[0.7713890075683594,0.000514984130859375],"type":"VEC2"},{"bufferView":8,"componentType":5126,"count":1920,"max":[0.0,9.5367431640625e-07,3.000000238418579],"min":[0.0,-9.5367431640625e-07,-3.000000238418579],"type":"VEC3"},{"bufferView":9,"componentType":5126,"count":1920,"max":[1.711864024400711e-05,1.0967254638671875e-05,5.9604644775390625e-06],"min":[-1.615285873413086e-05,-1.239776611328125e-05,-6.012618541717529e-06],"type":"VEC3"},{"bufferView":10,"componentType":5123,"count":2304,"max":[383],"min":[0],"type":"SCALAR"},{"bufferView":11,"componentType":5126,"count":384,"max":[-2.108764886856079,11.574498176574707,1.9436630010604858],"min":[-6.583995819091797,2.262371063232422,-1.8063360452651978],"type":"VEC3"},{"bufferView":12,"componentType":5126,"count":384,"max":[0.9965848326683044,0.9952430129051208,0.9983510375022888],"min":[-0.996585488319397,-0.9952438473701477,-0.9983512759208679],"type":"VEC3"},{"bufferView":13,"componentType":5126,"count":384,"max":[0.7713890075683594,0.000514984130859375],"min":[0.7713890075683594,0.000514984130859375],"type":"VEC2"},{"bufferView":14,"componentType":5123,"count":2304,"max":[383],"min":[0],"type":"SCALAR"},{"bufferView":15,"componentType":5126,"count":384,"max":[7.532158851623535,6.841549873352051,1.1936639547348022],"min":[4.782159805297852,2.2614240646362305,-1.0563369989395142],"type":"VEC3"},{"bufferView":16,"componentType":5126,"count":384,"max":[0.9995547533035278,0.9987525939941406,0.9983511567115784],"min":[-0.9995549321174622,-0.998752772808075,-0.9983510971069336],"type":"VEC3"},{"bufferView":17,"componentType":5126,"count":384,"max":[0.7713890075683594,0.000514984130859375],"min":[0.7713890075683594,0.000514984130859375],"type":"VEC2"},{"bufferView":18,"componentType":5123,"count":996,"max":[279],"min":[0],"type":"SCALAR"},{"bufferView":19,"componentType":5126,"count":280,"max":[5.199909210205078,8.482806205749512,1.5153570175170898],"min":[0.949908971786499,7.232807159423828,-1.4846429824829102],"type":"VEC3"},{"bufferView":20,"componentType":5126,"count":280,"max":[0.9967193603515625,0.9967196583747864,0.9950186014175415],"min":[-0.996719479560852,-0.996720016002655,-0.9967195391654968],"type":"VEC3"},{"bufferView":21,"componentType":5126,"count":280,"max":[0.9294120073318481,1.0555940009653568],"min":[-0.22298100590705872,-0.05559396743774414],"type":"VEC2"},{"bufferView":22,"componentType":5125,"count":524736,"max":[88732],"min":[0],"type":"SCALAR"},{"bufferView":23,"componentType":5126,"count":88733,"max":[9.865546226501465,4.8155741691589355,0.6266300082206726],"min":[4.944230079650879,-0.1057410016655922,-0.5433639883995056],"type":"VEC3"},{"bufferView":24,"componentType":5126,"count":88733,"max":[1.0,1.0,0.9999986290931702],"min":[-1.0,-1.0,-0.9999986886978149],"type":"VEC3"},{"bufferView":25,"componentType":5126,"count":88733,"max":[1.7608280181884766,0.5],"min":[-1.9539049863815308,-0.4637789726257324],"type":"VEC2"},{"bufferView":26,"componentType":5125,"count":524736,"max":[88732],"min":[0],"type":"SCALAR"},{"bufferView":27,"componentType":5126,"count":88733,"max":[-3.9965391159057617,4.8155741691589355,0.6266300082206726],"min":[-8.917856216430664,-0.1057410016655922,-0.5433639883995056],"type":"VEC3"},{"bufferView":28,"componentType":5126,"count":88733,"max":[1.0,0.9999999403953552,0.9999986290931702],"min":[-1.0,-1.0,-0.9999986886978149],"type":"VEC3"},{"bufferView":29,"componentType":5126,"count":88733,"max":[1.7608280181884766,0.5],"min":[-1.9539049863815308,-0.4637789726257324],"type":"VEC2"}],"asset":{"generator":"Soft8Soft Verge3D for Blender add-on","version":"2.0"},"bufferViews":[{"buffer":0,"byteLength":1992,"byteOffset":0,"target":34963},{"buffer":0,"byteLength":3360,"byteOffset":1992,"target":34962},{"buffer":0,"byteLength":3360,"byteOffset":5352,"target":34962},{"buffer":0,"byteLength":2240,"byteOffset":8712,"target":34962},{"buffer":0,"byteLength":23040,"byteOffset":10952,"target":34963},{"buffer":0,"byteLength":23040,"byteOffset":33992,"target":34962},{"buffer":0,"byteLength":23040,"byteOffset":57032,"target":34962},{"buffer":0,"byteLength":15360,"byteOffset":80072,"target":34962},{"buffer":0,"byteLength":23040,"byteOffset":95432},{"buffer":0,"byteLength":23040,"byteOffset":118472},{"buffer":0,"byteLength":4608,"byteOffset":141512,"target":34963},{"buffer":0,"byteLength":4608,"byteOffset":146120,"target":34962},{"buffer":0,"byteLength":4608,"byteOffset":150728,"target":34962},{"buffer":0,"byteLength":3072,"byteOffset":155336,"target":34962},{"buffer":0,"byteLength":4608,"byteOffset":158408,"target":34963},{"buffer":0,"byteLength":4608,"byteOffset":163016,"target":34962},{"buffer":0,"byteLength":4608,"byteOffset":167624,"target":34962},{"buffer":0,"byteLength":3072,"byteOffset":172232,"target":34962},{"buffer":0,"byteLength":1992,"byteOffset":175304,"target":34963},{"buffer":0,"byteLength":3360,"byteOffset":177296,"target":34962},{"buffer":0,"byteLength":3360,"byteOffset":180656,"target":34962},{"buffer":0,"byteLength":2240,"byteOffset":184016,"target":34962},{"buffer":0,"byteLength":2098944,"byteOffset":186256,"target":34963},{"buffer":0,"byteLength":1064796,"byteOffset":2285200,"target":34962},{"buffer":0,"byteLength":1064796,"byteOffset":3349996,"target":34962},{"buffer":0,"byteLength":709864,"byteOffset":4414792,"target":34962},{"buffer":0,"byteLength":2098944,"byteOffset":5124656,"target":34963},{"buffer":0,"byteLength":1064796,"byteOffset":7223600,"target":34962},{"buffer":0,"byteLength":1064796,"byteOffset":8288396,"target":34962},{"buffer":0,"byteLength":709864,"byteOffset":9353192,"target":34962}],"buffers":[{"byteLength":10063056,"uri":"wheels_demo_3.bin"}],"cameras":[{"extensions":{"S8S_v3d_camera_data":{"controls":"ORBIT","enablePan":true,"moveSpeed":1,"orbitMaxDistance":10000,"orbitMaxPolarAngle":3.141592653589793,"orbitMinDistance":0,"orbitMinPolarAngle":0,"orbitTarget":[-3.79476181380789e-15,4.7413105964660645,1.1898566484451294],"rotateSpeed":1,"viewportFitInitialAspect":1,"viewportFitType":"VERTICAL"}},"name":"__DEFAULT__","perspective":{"aspectRatio":1,"yfov":0.7853981633974483,"zfar":1000.0,"znear":0.10000000149011612},"type":"perspective"}],"extensionsUsed":["S8S_v3d_material_data","S8S_v3d_camera_data","S8S_v3d_mesh_data","S8S_v3d_node_data","S8S_v3d_scene_data"],"materials":[{"extensions":{"S8S_v3d_material_data":{"nodeGraph":{"edges":[{"fromNode":0,"fromOutput":0,"toInput":0,"toNode":1}],"nodes":[{"inputs":[[0.10588199645280838,0.10588199645280838,0.10588199645280838,1.0],0.0,[1.0,0.20000000298023224,0.10000000149011612],[0.800000011920929,0.800000011920929,0.800000011920929,1.0],0.0,0.3499999940395355,0.0,0.8114382028579712,0.0,0.0,0.0,0.5,0.0,0.029999999329447746,1.4500000476837158,0.0,0.0,[0.0,0.0,0.0,1.0],1.0,[0.0,0.0,0.0],[0.0,0.0,0.0],[0.0,0.0,0.0]],"is_active_output":false,"name":"Principled BSDF","outputs":[[0,0,0,0]],"type":"BSDF_PRINCIPLED_BL"},{"inputs":[[0,0,0,0],[0,0,0,0],[0.0,0.0,0.0]],"is_active_output":true,"name":"Material Output","outputs":[],"type":"OUTPUT_MATERIAL_BL"}]},"useCastShadows":true}},"name":"wire_027027027"},{"extensions":{"S8S_v3d_material_data":{"nodeGraph":{"edges":[{"fromNode":0,"fromOutput":0,"toInput":0,"toNode":1}],"nodes":[{"inputs":[[0.6000000238418579,0.8941180109977722,0.7215690016746521,1.0],0.0,[1.0,0.20000000298023224,0.10000000149011612],[0.800000011920929,0.800000011920929,0.800000011920929,1.0],0.0,0.3499999940395355,0.0,0.8114382028579712,0.0,0.0,0.0,0.5,0.0,0.029999999329447746,1.4500000476837158,0.0,0.0,[0.0,0.0,0.0,1.0],1.0,[0.0,0.0,0.0],[0.0,0.0,0.0],[0.0,0.0,0.0]],"is_active_output":false,"name":"Principled BSDF","outputs":[[0,0,0,0]],"type":"BSDF_PRINCIPLED_BL"},{"inputs":[[0,0,0,0],[0,0,0,0],[0.0,0.0,0.0]],"is_active_output":true,"name":"Material Output","outputs":[],"type":"OUTPUT_MATERIAL_BL"}]},"useCastShadows":true}},"name":"wire_153228184"},{"extensions":{"S8S_v3d_material_data":{"nodeGraph":{"edges":[{"fromNode":0,"fromOutput":0,"toInput":0,"toNode":1}],"nodes":[{"inputs":[[0.8823530077934265,0.5607839822769165,0.34117600321769714,1.0],0.0,[1.0,0.20000000298023224,0.10000000149011612],[0.800000011920929,0.800000011920929,0.800000011920929,1.0],0.0,0.3499999940395355,0.0,0.8114382028579712,0.0,0.0,0.0,0.5,0.0,0.029999999329447746,1.4500000476837158,0.0,0.0,[0.0,0.0,0.0,1.0],1.0,[0.0,0.0,0.0],[0.0,0.0,0.0],[0.0,0.0,0.0]],"is_active_output":false,"name":"Principled BSDF","outputs":[[0,0,0,0]],"type":"BSDF_PRINCIPLED_BL"},{"inputs":[[0,0,0,0],[0,0,0,0],[0.0,0.0,0.0]],"is_active_output":true,"name":"Material Output","outputs":[],"type":"OUTPUT_MATERIAL_BL"}]},"useCastShadows":true}},"name":"wire_225143087"},{"extensions":{"S8S_v3d_material_data":{"nodeGraph":{"edges":[{"fromNode":1,"fromOutput":0,"toInput":0,"toNode":0}],"nodes":[{"inputs":[[0,0,0,0],[0,0,0,0]],"is_active_output":true,"name":"World Output","outputs":[],"type":"OUTPUT_WORLD_BL"},{"inputs":[[0.05087608844041824,0.05087608844041824,0.05087608844041824,1.0],1.0],"is_active_output":false,"name":"Background","outputs":[[0,0,0,0]],"type":"BACKGROUND_BL"}]},"useCastShadows":true}},"name":"Verge3D_Environment_World"}],"meshes":[{"extensions":{"S8S_v3d_mesh_data":{"colorLayers":{},"uvLayers":{"UVMap":"TEXCOORD_0"}}},"name":"back","primitives":[{"attributes":{"NORMAL":2,"POSITION":1,"TEXCOORD_0":3},"indices":0,"material":2,"mode":4}]},{"extensions":{"S8S_v3d_mesh_data":{"colorLayers":{},"uvLayers":{"UVMap":"TEXCOORD_0"}}},"extras":{"targetNames":["width"]},"name":"doors","primitives":[{"attributes":{"NORMAL":6,"POSITION":5,"TEXCOORD_0":7},"indices":4,"material":1,"mode":4,"targets":[{"NORMAL":9,"POSITION":8}]}],"weights":[0.0]},{"extensions":{"S8S_v3d_mesh_data":{"colorLayers":{},"uvLayers":{"UVMap":"TEXCOORD_0"}}},"name":"fork","primitives":[{"attributes":{"NORMAL":12,"POSITION":11,"TEXCOORD_0":13},"indices":10,"material":1,"mode":4}]},{"extensions":{"S8S_v3d_mesh_data":{"colorLayers":{},"uvLayers":{"UVMap":"TEXCOORD_0"}}},"name":"rocker","primitives":[{"attributes":{"NORMAL":16,"POSITION":15,"TEXCOORD_0":17},"indices":14,"material":1,"mode":4}]},{"extensions":{"S8S_v3d_mesh_data":{"colorLayers":{},"uvLayers":{"UVMap":"TEXCOORD_0"}}},"name":"seat","primitives":[{"attributes":{"NORMAL":20,"POSITION":19,"TEXCOORD_0":21},"indices":18,"material":2,"mode":4}]},{"extensions":{"S8S_v3d_mesh_data":{"colorLayers":{},"uvLayers":{"UVMap":"TEXCOORD_0"}}},"name":"wheel","primitives":[{"attributes":{"NORMAL":24,"POSITION":23,"TEXCOORD_0":25},"indices":22,"material":0,"mode":4}]},{"extensions":{"S8S_v3d_mesh_data":{"colorLayers":{},"uvLayers":{"UVMap":"TEXCOORD_0"}}},"name":"wheel.000","primitives":[{"attributes":{"NORMAL":28,"POSITION":27,"TEXCOORD_0":29},"indices":26,"material":0,"mode":4}]}],"nodes":[{"extensions":{"S8S_v3d_node_data":{"frustumCulling":true,"groupNames":["Collection"],"hidden":false,"renderOrder":0,"useShadows":true}},"mesh":2,"name":"fork","rotation":[1.1920928955078125e-07,0.0,-0.0,1.0]},{"extensions":{"S8S_v3d_node_data":{"frustumCulling":true,"groupNames":["Collection"],"hidden":false,"renderOrder":0,"useShadows":true}},"mesh":0,"name":"back","rotation":[1.1920928955078125e-07,0.0,-0.0,1.0],"translation":[1.0,0.0,-0.0]},{"extensions":{"S8S_v3d_node_data":{"frustumCulling":true,"groupNames":["Collection"],"hidden":false,"renderOrder":0,"useShadows":true}},"mesh":4,"name":"seat","rotation":[1.1920928955078125e-07,0.0,-0.0,1.0]},{"extensions":{"S8S_v3d_node_data":{"frustumCulling":true,"groupNames":["Collection 2"],"hidden":false,"renderOrder":0,"useShadows":true}},"mesh":1,"name":"doors","rotation":[1.1920928955078125e-07,0.0,-0.0,1.0],"translation":[1.0,0.0,-0.0]},{"extensions":{"S8S_v3d_node_data":{"frustumCulling":true,"groupNames":["Collection"],"hidden":false,"renderOrder":0,"useShadows":true}},"mesh":6,"name":"wheel.000","rotation":[1.1920928955078125e-07,0.0,-0.0,1.0]},{"extensions":{"S8S_v3d_node_data":{"frustumCulling":true,"groupNames":["Collection"],"hidden":false,"renderOrder":0,"useShadows":true}},"mesh":5,"name":"wheel","rotation":[1.1920928955078125e-07,0.0,-0.0,1.0]},{"extensions":{"S8S_v3d_node_data":{"frustumCulling":true,"groupNames":["Collection"],"hidden":false,"renderOrder":0,"useShadows":true}},"mesh":3,"name":"rocker","rotation":[1.1920928955078125e-07,0.0,-0.0,1.0]},{"camera":0,"name":"__DEFAULT_CAMERA__","rotation":[-0.05922406539320946,-0.773696780204773,-0.07313646376132965,0.6265276670455933],"scale":[0.9999999403953552,0.9999998807907104,0.9999998807907104],"translation":[-35.267982482910156,11.619361877441406,-6.306553363800049]}],"scene":0,"scenes":[{"extensions":{"S8S_v3d_scene_data":{"aaMethod":"AUTO","iblEnvironmentMode":"PMREM","physicallyCorrectLights":true,"pmremMaxTileSize":512,"shadowMap":{"esmDistanceScale":1.0,"renderReverseSided":false,"renderSingleSided":true,"type":"PCFPOISSON"},"toneMapping":{"type":"filmicBlender"},"worldMaterial":3}},"extras":{"animFrameRate":24,"coordSystem":"Z_UP_RIGHT"},"name":"Scene","nodes":[5,4,0,6,2,1,3,7]}]}
